<svg xmlns="http://www.w3.org/2000/svg" width="145" height="107" fill="none" viewBox="0 0 145 107"><path fill="#07C160" d="M79.49 61.235c-2.21-3.63-5.89-6.41-10.29-7.69l-.335-.1a7.6 7.6 0 0 0-2.07-.31c-3.05 0-4.77 2.06-3.85 4.605.68 1.86 2.455 3.43 4.625 4.155 3.36 1.225 5.71 4.02 5.71 7.275 0 4.385-4.265 7.935-9.525 7.935s-9.52-3.55-9.52-7.935V44.83c0-5.85-3.395-10.985-8.47-13.89a19.15 19.15 0 0 0-9.52-2.51c-9.92 0-17.99 7.355-17.99 16.4 0 2.88.82 5.585 2.255 7.935 2.22 3.65 5.92 6.435 10.35 7.705l.01.005c.75.235 1.525.36 2.285.36 3.065 0 4.8-2.07 3.87-4.62-.63-1.735-2.33-3.225-4.305-4.015a11 11 0 0 1-.695-.26c-3.14-1.3-5.305-3.99-5.305-7.11 0-4.385 4.265-7.935 9.525-7.935s9.52 3.55 9.52 7.935v24.34c0 5.85 3.395 10.985 8.47 13.89a19.15 19.15 0 0 0 9.52 2.51c9.92 0 17.99-7.355 17.99-16.4 0-2.88-.82-5.585-2.255-7.935M50 107C22.385 107 0 84.615 0 57S22.385 7 50 7s50 22.385 50 50-22.385 50-50 50"></path><path fill="#0EA5E9" fill-rule="evenodd" d="M99.711 50q17.902.075 22.46-16.57c-4.504 5.534-9.735 7.598-15.695 6.182-3.401-.808-5.824-3.116-8.503-5.674-4.368-4.165-9.423-8.986-20.514-9.033Q59.558 24.829 55 41.475q6.754-8.303 15.693-6.183c3.4.808 5.823 3.117 8.505 5.676C83.566 45.131 88.62 49.952 99.71 50m22.496-24.905c11.938.051 19.421-5.47 22.46-16.568q-6.754 8.305-15.695 6.183c-3.399-.807-5.822-3.117-8.503-5.672C116.101 4.869 111.046.048 99.955 0Q82.054-.076 77.496 16.57q6.755-8.305 15.695-6.182c3.401.806 5.821 3.116 8.503 5.674 4.368 4.165 9.422 8.986 20.513 9.033" clip-rule="evenodd"></path></svg>
